<svg width="121" height="40" viewBox="0 0 121 40" fill="none" xmlns="http://www.w3.org/2000/svg">
<path d="M64.2813 26.1935L64.7838 23.229H59.9231V17.3632H62.8117L63.3142 14.3987H59.9231V8.53604H64.3035L64.8028 5.57153H56.9617V14.3987H55.0054V5.57153H52.0409V14.3987H48.3463V5.57153H45.3818V14.3987V17.3632V26.1935H48.3463V17.3632H52.0409V26.1935H55.0054V17.3632H56.9617V26.1935H64.2813Z" fill="#271A13"/>
<path d="M48.4955 0.113281H43.6032H40.6387H35.3291V3.07778H40.6387V27.6124H43.6032V3.07778H48.4955V0.113281Z" fill="#271A13"/>
<path d="M104.087 5.57187L98.1011 18.6245H97.9842C98.2339 17.7522 98.3698 16.8326 98.3698 15.8813C98.3698 10.4042 93.9136 5.94797 88.4365 5.94797C85.9271 5.94797 83.6326 6.88346 81.8817 8.42576C81.041 4.89238 78.4842 2.01321 75.1436 0.726903C73.9237 0.255996 72.5995 0 71.2152 0H65.7445L65.2451 2.9645H70.1881L66.9265 22.297L66.0447 27.5654H69.0503L69.9542 22.1706L77.5582 29.7746H81.749L73.6329 21.6586C75.6683 21.1971 77.4919 20.17 78.9267 18.7509C80.1593 22.8342 83.9581 25.8177 88.4396 25.8177C91.796 25.8177 94.7669 24.1458 96.5652 21.5922H96.7453L94.6531 26.1527H97.9147L100.007 21.5922H103.825L103.041 26.1527H106.047L109.586 5.57503H104.087V5.57187ZM79.0152 12.7334C78.9235 13.0084 78.8414 13.2897 78.775 13.5773C77.691 16.7061 74.7107 18.9627 71.2152 18.9627H70.4946L73.1557 3.2047C76.6322 4.07382 79.2143 7.22163 79.2143 10.9636C79.2143 11.5704 79.1448 12.1646 79.0152 12.7334ZM88.4365 22.8532C84.5934 22.8532 81.4677 19.7275 81.4677 15.8844C81.4677 15.3693 81.5246 14.8668 81.632 14.3832C81.7205 14.1146 81.7995 13.8396 81.8659 13.5646C82.8235 10.8593 85.4088 8.91563 88.4365 8.91563C92.2796 8.91563 95.4053 12.0413 95.4053 15.8844C95.4053 19.7275 92.2796 22.8532 88.4365 22.8532ZM104.334 18.6277H101.363L105.99 8.53953H106.069L104.334 18.6277Z" fill="#271A13"/>
<path d="M119.662 7.58813C118.581 6.30499 117.001 5.5686 115.323 5.5686H111.502L107.962 26.1463L107.956 26.1905H111.903C112.175 26.1905 112.447 26.1747 112.713 26.1463C116.18 25.7923 119.027 23.1818 119.631 19.6768L120.917 12.2055C121.202 10.5526 120.746 8.86811 119.666 7.58813H119.662ZM117.994 11.703L116.707 19.1743C116.303 21.5194 114.283 23.2229 111.9 23.2229H111.47L113.999 8.52994H115.32C116.12 8.52994 116.875 8.88075 117.393 9.49388C117.908 10.107 118.126 10.9098 117.99 11.6999L117.994 11.703Z" fill="#271A13"/>
<path d="M33.8219 17.7716L33.8155 17.7336V18.4005H33.7365L33.5248 16.1155L31.6222 5.57223H27.166V10.7301C25.1717 6.16639 20.6143 2.96802 15.3238 2.96802C8.20326 2.96802 2.41016 8.76112 2.41016 15.8816C2.41016 18.6628 3.29192 21.2386 4.79314 23.3498L7.16347 21.5704C6.03519 19.9586 5.37466 17.996 5.37466 15.8848C5.37466 10.3982 9.83721 5.93252 15.3269 5.93252C20.8166 5.93252 25.2792 10.3951 25.2792 15.8848C25.2792 17.8853 24.685 19.7468 23.6673 21.3081L26.1104 22.9863C26.5181 22.37 26.872 21.719 27.1723 21.0363V23.7164L30.1368 25.7549V13.9948V13.3564H30.2158L30.4212 15.5814L32.3333 26.191H36.7895V5.57223H33.825V17.7716H33.8219Z" fill="#271A13"/>
<path d="M0.290163 28.2451C0.068932 28.4347 -0.0164001 28.6907 0.00256255 28.9341C0.0404879 29.4492 0.558802 29.7906 1.05815 29.6578L11.9775 26.7755L14.9136 16.3018L0.290163 28.2451Z" fill="#271A13"/>
<path d="M30.6444 28.9343C30.6634 28.6909 30.5749 28.435 30.3568 28.2453L15.7334 16.2988L18.6695 26.7726L29.5888 29.6549C30.0882 29.7876 30.6065 29.4463 30.6444 28.9311V28.9343Z" fill="#271A13"/>
<path d="M15.328 16.2288C15.3027 16.2288 15.2806 16.2288 15.2553 16.2288L14.3135 29.7144H16.3393L15.3975 16.2288C15.3722 16.2288 15.3501 16.2288 15.3248 16.2288H15.328Z" fill="#271A13"/>
<path d="M29.6038 39.2047L28.4124 34.3945H28.0078L29.3763 39.663H29.7208L32.9255 34.3945H32.483L29.6038 39.2047Z" fill="#271A13"/>
<path d="M40.9404 39.6251H41.3292L42.2425 34.3945H41.8538L40.9404 39.6251Z" fill="#271A13"/>
<path d="M53.6081 34.3572L50.2549 39.6225H50.6879L51.6107 38.1592H54.6953L55.103 39.6225H55.4981L53.9811 34.3572H53.6081ZM51.8351 37.8147L53.7472 34.7902L54.591 37.8147H51.8351Z" fill="#271A13"/>
<path d="M66.8329 37.8205C66.7855 38.0701 66.7255 38.2882 66.6528 38.4778C66.577 38.6675 66.479 38.8286 66.3589 38.9645C66.125 39.2237 65.8216 39.3533 65.4455 39.3533C65.1421 39.3533 64.8924 39.2711 64.6965 39.1068C64.5005 38.9424 64.3394 38.7022 64.2098 38.383L63.8779 38.5031C63.938 38.6675 64.0138 38.8223 64.1086 38.9709C64.2035 39.1194 64.3141 39.2458 64.4468 39.3533C64.5795 39.4607 64.7313 39.5461 64.9051 39.6061C65.0789 39.6662 65.2748 39.6978 65.4929 39.6978C65.711 39.6978 65.9164 39.6567 66.1187 39.5713C66.321 39.486 66.4948 39.3659 66.6402 39.2047C66.7887 39.0404 66.9088 38.8508 66.9973 38.6359C67.0858 38.4209 67.1585 38.1649 67.209 37.8679L67.8158 34.3945H67.4271L66.8298 37.8205H66.8329Z" fill="#271A13"/>
<path d="M76.1602 39.6251H79.88L79.9432 39.2648H76.6121L76.9756 37.1662H79.9337L79.9969 36.8091H77.0388L77.3959 34.7548H80.6922L80.7554 34.3945H77.0735L76.1602 39.6251Z" fill="#271A13"/>
<path d="M92.1798 34.5401C91.8511 34.3947 91.4908 34.3188 91.0989 34.3188C90.8145 34.3188 90.5617 34.3568 90.3404 34.4358C90.1192 34.5116 89.9327 34.6159 89.7779 34.7455C89.6262 34.8751 89.5124 35.0268 89.4397 35.2006C89.367 35.3744 89.3386 35.5609 89.3575 35.76C89.3733 35.9212 89.4144 36.0634 89.4808 36.1898C89.5472 36.3163 89.6451 36.4332 89.7747 36.5406C89.9043 36.6481 90.0686 36.7492 90.2677 36.8472C90.4668 36.9452 90.7039 37.0463 90.982 37.1506C91.2001 37.2359 91.3834 37.3181 91.5382 37.394C91.6931 37.4698 91.8195 37.552 91.9143 37.6342C92.0123 37.7163 92.085 37.8048 92.1324 37.8965C92.1798 37.9881 92.2114 38.0924 92.2209 38.2062C92.2367 38.3705 92.2114 38.5222 92.1482 38.6613C92.085 38.8004 91.9902 38.9205 91.8638 39.0248C91.7374 39.1259 91.5856 39.2081 91.4087 39.265C91.2285 39.3218 91.0326 39.3503 90.8177 39.3503C90.4005 39.3503 90.0402 39.2776 89.7399 39.1322C89.4397 38.9868 89.1647 38.7719 88.9119 38.4812L88.6338 38.6992C88.8835 39.009 89.1869 39.2523 89.5503 39.4261C89.9138 39.6031 90.3341 39.6916 90.8113 39.6916C91.0895 39.6916 91.3455 39.6505 91.5762 39.5715C91.8069 39.4925 92.0028 39.3819 92.1608 39.246C92.3189 39.1101 92.439 38.9489 92.518 38.7624C92.597 38.5791 92.6286 38.3769 92.6065 38.1651C92.5907 38.0071 92.5496 37.8617 92.4832 37.7321C92.4168 37.6026 92.322 37.4825 92.1988 37.3718C92.0755 37.2612 91.9238 37.1601 91.7405 37.0653C91.5572 36.9705 91.3391 36.8788 91.0863 36.7872C90.8651 36.7081 90.6723 36.6291 90.5079 36.5501C90.3436 36.4743 90.2077 36.3921 90.0971 36.3099C89.9865 36.2278 89.9043 36.1393 89.8442 36.0413C89.7842 35.9433 89.7494 35.8359 89.7399 35.7158C89.7273 35.5767 89.7494 35.444 89.8031 35.3144C89.8569 35.188 89.9422 35.0742 90.056 34.9762C90.1698 34.8782 90.312 34.7992 90.4858 34.7392C90.6596 34.6791 90.8587 34.6507 91.0831 34.6507C91.4118 34.6507 91.7121 34.7107 91.9807 34.8277C92.2493 34.9446 92.4895 35.1153 92.7013 35.3397L92.9762 35.0995C92.7645 34.8656 92.4959 34.676 92.1672 34.5274L92.1798 34.5401Z" fill="#271A13"/>
</svg>
